<svg aria-hidden="true" style="position: absolute; width: 0; height: 0; overflow: hidden;" version="1.1" xmlns="http://www.w3.org/2000/svg" xmlns:xlink="http://www.w3.org/1999/xlink">
<defs>
<symbol id="icon-mail" viewBox="0 0 39 32">
<path  d="M35.692 2.432h-32c-2.036 0-3.692 1.657-3.692 3.692v22.146c0 2.036 1.657 3.692 3.692 3.692h32c2.036 0 3.692-1.657 3.692-3.692v-22.146c0-2.036-1.657-3.692-3.692-3.692zM35.692 4.894c0.167 0 0.327 0.034 0.473 0.096l-16.473 14.27-16.473-14.27c0.139-0.060 0.302-0.096 0.472-0.096h32zM35.692 29.502h-32c-0.68 0-1.231-0.551-1.231-1.231v0-20.682l16.423 14.228c0.215 0.188 0.498 0.302 0.807 0.302s0.593-0.114 0.809-0.303l-0.001 0.001 16.423-14.225v20.682c0 0.68-0.551 1.231-1.231 1.231v0z"></path>
</symbol>
<symbol id="icon-smartphone" viewBox="0 0 20 32">
<path  d="M17 0h-14c-1.654 0-3 1.346-3 3v26c0 1.654 1.346 3 3 3h14c1.654 0 3-1.346 3-3v-26c0-1.654-1.346-3-3-3zM3 2h14c0.552 0 1 0.448 1 1v21h-16v-21c0-0.552 0.448-1 1-1zM17 30h-14c-0.552 0-1-0.448-1-1v-3h16v3c0 0.552-0.448 1-1 1z"></path>
<path   d="M4.707 27.478c0.391 0.365 0.391 0.956 0 1.32s-1.024 0.364-1.414 0c-0.391-0.365-0.391-0.956 0-1.32s1.024-0.365 1.414 0z"></path>
</symbol>
</defs>
</svg>
